<svg id="Layer_1" xmlns="http://www.w3.org/2000/svg" viewBox="0 0 485.7 206.3"><style>.st0{fill:#00afaa}.st1{fill:#908f88}</style><path class="st0" d="M75.9 110.1c-3.6 4.3-8.2 7.8-13.9 10.6-5.7 2.8-12.2 4.1-19.6 4.1-6.1 0-11.8-1.1-17-3.4-5.2-2.3-9.7-5.4-13.5-9.4-3.8-4-6.7-8.7-8.8-14.1C1 92.4 0 86.5 0 80.3 0 74 1.1 68.2 3.2 62.7c2.1-5.4 5.1-10.2 8.9-14.1 3.8-4 8.3-7.1 13.5-9.4 5.2-2.3 10.8-3.4 16.8-3.4 7.5 0 13.8 1.3 19 4 5.2 2.6 9.6 6.3 13.3 10.9l-6.2 4.8c-2.8-3.7-6.3-6.6-10.6-8.7-4.2-2.1-9.4-3.2-15.5-3.2-4.9 0-9.4 1-13.5 2.9-4.1 2-7.7 4.6-10.7 7.9-3 3.3-5.3 7.2-7 11.7-1.7 4.5-2.5 9.2-2.5 14.2s.9 9.8 2.6 14.2c1.7 4.5 4.1 8.4 7.1 11.7 3 3.3 6.6 5.9 10.7 7.9s8.5 2.9 13.3 2.9c6.1 0 11.5-1.1 16.3-3.3 4.7-2.2 8.5-5.1 11.3-8.8l5.9 5.2zM95.2 0h8.3v122.5h-8.3V0zM202.1 109.9c-3.7 4.7-8.7 8.3-15 10.9-6.3 2.6-12.8 4-19.4 4-6.2 0-12-1.1-17.4-3.2-5.3-2.1-9.9-5.2-13.7-9.1-3.8-3.9-6.8-8.6-8.9-14.1-2.1-5.4-3.2-11.5-3.2-18.1 0-6.1 1-11.9 3-17.3s4.8-10.1 8.4-14.1c3.6-4 7.8-7.2 12.9-9.6 5-2.3 10.5-3.5 16.5-3.5 5.8 0 11.1 1 16.1 3 5 2 9.2 5 12.9 8.9 3.6 3.9 6.4 8.8 8.5 14.6 2 5.8 3 12.5 3 20.1h-72c.1 4.8 1 9.3 2.8 13.5 1.7 4.2 4 7.9 7 11 2.9 3.1 6.5 5.6 10.6 7.3 4.1 1.8 8.7 2.7 13.7 2.7 2.6 0 5.2-.3 8-.8 2.8-.6 5.4-1.4 8-2.5 2.6-1.1 4.9-2.4 7.1-3.9 2.1-1.5 4-3.1 5.4-5l5.7 5.2zm-5.3-34.6c-1.1-10.4-4.4-18.3-9.9-23.7-5.5-5.4-12.7-8.1-21.5-8.1-4.5 0-8.7.8-12.4 2.5-3.7 1.7-7 3.9-9.6 6.8-2.7 2.9-4.9 6.2-6.5 10.1-1.7 3.9-2.6 8-2.8 12.4h62.7zM284.8 122.5c-.1-1.1-.2-2.3-.2-3.7-.1-1.2-.2-2.7-.2-4.4v-6.1c-2.2 3.2-4.6 5.9-7.3 8-2.6 2.1-5.4 3.8-8.3 5.1-2.9 1.2-5.7 2.1-8.5 2.6s-5.3.7-7.6.7c-3.6 0-7.1-.4-10.7-1.1-3.6-.7-6.7-2.1-9.6-4-2.8-1.9-5.1-4.5-6.9-7.7-1.8-3.2-2.7-7.4-2.7-12.4 0-4 .7-7.9 2-11.5 1.3-3.6 3.5-6.7 6.4-9.4 2.9-2.6 6.7-4.7 11.4-6.2s10.3-2.3 16.9-2.3c5.1 0 9.7.2 13.8.6 4 .4 7.5.8 10.3 1.3v-4.8c0-4.7-.6-8.5-1.7-11.6-1.1-3.1-2.8-5.5-5-7.3-2.2-1.8-4.9-3.1-8.1-3.9-3.2-.7-6.9-1.1-11-1.1-7 0-12.5 1-16.6 3-4.1 2-7.3 4-9.5 5.8l-4.4-5.7c2.3-2.2 6.1-4.5 11.3-7 5.2-2.4 11.5-3.7 19-3.7 10.9 0 19.3 2.3 25.3 7 5.9 4.7 8.9 12.4 8.9 23.2v45.9c0 2.1.1 4 .2 5.6.1 2 .2 3.7.4 5.1h-7.6zm-.8-43.1c-2.6-.6-5.8-1.1-9.6-1.6-3.9-.4-8.8-.6-14.8-.6-6.2 0-11.2.8-14.9 2.3-3.7 1.5-6.5 3.4-8.4 5.7-1.9 2.3-3.1 4.7-3.7 7.3-.6 2.6-.8 5-.8 7.1 0 6.1 2.1 10.6 6.2 13.4 4.1 2.8 9.3 4.2 15.7 4.2 4.2 0 8.1-.7 11.8-2.2 3.7-1.5 6.9-3.4 9.6-5.9 2.8-2.4 4.9-5.2 6.5-8.4 1.6-3.1 2.4-6.3 2.4-9.5V79.4zM317.7 55.9v-6-4.4c0-1.3 0-2.5-.1-3.7-.1-1.2-.2-2.4-.3-3.8h7.7l.3 3.9c.1 1.2.1 2.5.2 4 .1 1.4.1 3 .1 4.7v6.1c1-1.8 2.3-3.9 4-6.2 1.7-2.3 3.8-4.4 6.3-6.3 2.6-2 5.6-3.6 9-5 3.4-1.3 7.4-2 11.9-2 2.7 0 5 .4 7 1.3l-2.4 7.9c-.9-.4-1.9-.6-3-.7-1.2-.1-2.2-.2-3.2-.2-4.4 0-8.4 1-11.9 2.9-3.6 2-6.6 4.5-9.2 7.7-2.6 3.2-4.6 6.8-6 10.9-1.4 4.1-2.1 8.2-2.1 12.4v43.2h-8.3V55.9z"/><g><path class="st1" d="M230.3 160.7h-6.8v-3.1h6.8v-3.9c0-4 .9-7.1 2.7-9.3 1.8-2.2 4.4-3.2 7.8-3.2 2.2 0 4 .4 5.5 1.1 1.5.7 2.7 1.7 3.7 2.8l-2.1 2.1c-1-1-2.1-1.8-3.1-2.2-1-.5-2.2-.7-3.6-.7-1.1 0-2.1.1-3 .4-.9.3-1.7.8-2.4 1.7-.7.8-1.2 1.9-1.5 3.3-.4 1.4-.6 3.2-.6 5.4v2.6h11.2v3.1h-11.2v30.8h-3.3v-30.9zM254.5 142.3h3.3v49.2h-3.3v-49.2zM283.8 192.4c-2.4 0-4.7-.5-6.8-1.4-2.1-.9-4-2.2-5.6-3.8-1.6-1.6-2.9-3.5-3.8-5.7s-1.4-4.5-1.4-6.9c0-2.5.5-4.8 1.4-6.9.9-2.2 2.2-4.1 3.8-5.7 1.6-1.6 3.5-2.9 5.6-3.8 2.1-.9 4.4-1.4 6.8-1.4 2.4 0 4.7.5 6.8 1.4 2.1.9 4 2.2 5.6 3.8 1.6 1.6 2.8 3.5 3.8 5.7.9 2.2 1.4 4.5 1.4 6.9 0 2.5-.5 4.8-1.4 6.9-.9 2.2-2.2 4.1-3.8 5.7-1.6 1.6-3.5 2.9-5.6 3.8-2.1.9-4.4 1.4-6.8 1.4zm0-3c2 0 3.8-.4 5.5-1.2 1.7-.8 3.2-1.8 4.5-3.2 1.3-1.3 2.2-2.9 3-4.7.7-1.8 1.1-3.7 1.1-5.8 0-2-.4-3.8-1.1-5.6-.7-1.8-1.7-3.4-3-4.8s-2.7-2.5-4.5-3.2c-1.7-.8-3.5-1.2-5.5-1.2s-3.9.4-5.6 1.2c-1.7.8-3.2 1.8-4.4 3.2-1.3 1.3-2.2 2.9-3 4.7-.7 1.8-1.1 3.7-1.1 5.8 0 2 .4 3.9 1.1 5.7.7 1.8 1.7 3.3 3 4.7 1.3 1.4 2.7 2.5 4.5 3.2 1.8.8 3.6 1.2 5.5 1.2zM333 191.5c0-.4-.1-.9-.1-1.5 0-.5-.1-1.1-.1-1.8v-2.4c-.9 1.3-1.9 2.3-2.9 3.2-1.1.9-2.2 1.5-3.3 2-1.2.5-2.3.8-3.4 1-1.1.2-2.1.3-3.1.3-1.4 0-2.9-.1-4.3-.4-1.4-.3-2.7-.8-3.8-1.6-1.1-.8-2.1-1.8-2.8-3.1-.7-1.3-1.1-3-1.1-5 0-1.6.3-3.2.8-4.6.5-1.5 1.4-2.7 2.6-3.8 1.2-1.1 2.7-1.9 4.6-2.5 1.9-.6 4.1-.9 6.8-.9 2.1 0 3.9.1 5.5.2s3 .3 4.1.5v-1.9c0-1.9-.2-3.4-.7-4.6-.4-1.2-1.1-2.2-2-2.9-.9-.7-2-1.3-3.2-1.6-1.3-.3-2.8-.4-4.4-.4-2.8 0-5 .4-6.7 1.2-1.6.8-2.9 1.6-3.8 2.3l-1.8-2.3c.9-.9 2.4-1.8 4.5-2.8 2.1-1 4.6-1.5 7.6-1.5 4.4 0 7.8.9 10.1 2.8 2.4 1.9 3.6 5 3.6 9.3v18.4c0 .9 0 1.6.1 2.2 0 .8.1 1.5.1 2.1H333zm-.3-17.3c-1-.2-2.3-.5-3.9-.6-1.5-.2-3.5-.3-5.9-.3-2.5 0-4.5.3-6 .9-1.5.6-2.6 1.4-3.4 2.3-.8.9-1.3 1.9-1.5 3-.2 1.1-.3 2-.3 2.8 0 2.5.8 4.3 2.5 5.4 1.6 1.1 3.7 1.7 6.3 1.7 1.7 0 3.2-.3 4.7-.9 1.5-.6 2.8-1.4 3.9-2.4s2-2.1 2.6-3.4c.6-1.3 1-2.5 1-3.8v-4.7zM349.1 160.7h-6.8v-3.1h6.8v-11.2h3.3v11.2h11.2v3.1h-11.2v19.6c0 2 .1 3.6.4 4.8.3 1.2.7 2.1 1.3 2.7.6.6 1.2 1 2 1.2.7.2 1.5.3 2.4.3 1.2 0 2.3-.2 3.2-.7s1.8-1.2 2.7-2.3l2.1 2c-1 1.3-2.1 2.3-3.4 3-1.3.7-2.9 1-4.9 1-1.3 0-2.6-.2-3.7-.5s-2.1-.9-2.9-1.8c-.8-.9-1.4-2-1.8-3.5-.4-1.5-.7-3.3-.7-5.6v-20.2zM381.7 184.9c1.4 1.4 3.1 2.5 4.9 3.3 1.8.8 4 1.1 6.5 1.1 1.4 0 2.7-.1 3.9-.4 1.2-.3 2.3-.7 3.2-1.2.9-.5 1.7-1.2 2.2-2 .5-.8.8-1.7.8-2.8 0-1.2-.2-2.2-.7-3-.5-.8-1.2-1.4-2.2-2-1-.5-2.2-1-3.6-1.3-1.5-.4-3.1-.8-5-1.2-1.6-.3-3-.8-4.3-1.2-1.3-.5-2.4-1-3.4-1.7-.9-.7-1.7-1.6-2.2-2.6-.5-1.1-.8-2.4-.8-3.9s.3-2.9 1-4c.7-1.2 1.6-2.1 2.8-2.9 1.2-.8 2.5-1.4 4-1.7 1.5-.4 3.1-.6 4.7-.6 2.7 0 5 .5 7 1.5s3.7 2.2 5 3.8l-2.3 2.1c-1.2-1.3-2.5-2.3-4.1-3.1-1.5-.8-3.4-1.2-5.6-1.2-1.1 0-2.2.1-3.2.3-1.1.2-2.1.5-3 1-.9.5-1.6 1.1-2.1 1.9-.5.8-.8 1.9-.8 3.2 0 1.1.3 2 .9 2.7.6.7 1.4 1.4 2.4 1.8 1 .5 2.1.9 3.4 1.2 1.3.3 2.6.6 3.8.9 1.4.3 2.8.7 4.2 1.1 1.4.4 2.7 1 3.8 1.7 1.2.7 2.1 1.6 2.8 2.7.7 1.1 1.1 2.5 1.1 4.2 0 1.7-.4 3.2-1.2 4.4-.8 1.2-1.8 2.3-3.1 3.1-1.3.8-2.7 1.4-4.4 1.8-1.6.4-3.2.6-4.9.6-3.2 0-5.9-.5-8.1-1.4-2.2-.9-4.1-2.2-5.7-3.8l2.3-2.4zM417.8 164.7v-2.4-1.8-1.5c0-.5-.1-1-.1-1.5h3.1c0 .5.1 1 .1 1.4 0 .4 0 .8.1 1.3 0 .4 0 .9.1 1.5v2c.2-.4.6-1.1 1.2-1.8.5-.8 1.3-1.6 2.3-2.4s2.3-1.5 3.7-2.1c1.5-.6 3.2-.9 5.3-.9 2.6 0 4.9.5 6.8 1.4 1.9.9 3.5 2.2 4.8 3.8 1.3 1.6 2.2 3.5 2.8 5.7.6 2.2.9 4.6.9 7.1 0 2.7-.4 5.1-1.3 7.2-.9 2.2-2.1 4-3.6 5.6-1.5 1.5-3.4 2.7-5.5 3.6-2.1.8-4.4 1.3-6.8 1.3-2.4 0-4.5-.3-6.2-1-1.7-.7-3.2-1.3-4.4-2v16.9h-3.2v-41.4zm3.2 20.9c.3.2.8.6 1.4 1 .6.4 1.3.8 2.2 1.2.9.4 1.9.7 3.1 1 1.2.3 2.5.4 3.9.4 1.9 0 3.6-.3 5.3-1 1.7-.6 3.1-1.6 4.4-2.8 1.2-1.2 2.2-2.7 2.9-4.5.7-1.8 1.1-3.9 1.1-6.2 0-2-.2-3.9-.7-5.7-.4-1.8-1.1-3.4-2.1-4.8s-2.2-2.5-3.7-3.3c-1.5-.8-3.4-1.2-5.6-1.2-1.5 0-2.8.2-4 .7-1.2.4-2.3 1-3.2 1.8-.9.8-1.7 1.6-2.4 2.7-.7 1-1.2 2.1-1.6 3.1-.3.9-.6 1.9-.7 3.2-.1 1.2-.2 2.5-.2 3.8v10.6zM482.6 191.5c0-.4-.1-.9-.1-1.5 0-.5-.1-1.1-.1-1.8v-2.4c-.9 1.3-1.9 2.3-2.9 3.2-1.1.9-2.2 1.5-3.3 2-1.2.5-2.3.8-3.4 1-1.1.2-2.1.3-3.1.3-1.4 0-2.9-.1-4.3-.4-1.4-.3-2.7-.8-3.8-1.6-1.1-.8-2.1-1.8-2.8-3.1-.7-1.3-1.1-3-1.1-5 0-1.6.3-3.2.8-4.6.5-1.5 1.4-2.7 2.6-3.8 1.2-1.1 2.7-1.9 4.6-2.5 1.9-.6 4.1-.9 6.8-.9 2.1 0 3.9.1 5.5.2s3 .3 4.1.5v-1.9c0-1.9-.2-3.4-.7-4.6-.4-1.2-1.1-2.2-2-2.9-.9-.7-2-1.3-3.2-1.6-1.3-.3-2.8-.4-4.4-.4-2.8 0-5 .4-6.7 1.2-1.6.8-2.9 1.6-3.8 2.3l-1.8-2.3c.9-.9 2.4-1.8 4.5-2.8 2.1-1 4.6-1.5 7.6-1.5 4.4 0 7.8.9 10.1 2.8 2.4 1.9 3.6 5 3.6 9.3v18.4c0 .9 0 1.6.1 2.2 0 .8.1 1.5.1 2.1h-2.9zm-.3-17.3c-1-.2-2.3-.5-3.9-.6-1.5-.2-3.5-.3-5.9-.3-2.5 0-4.5.3-6 .9-1.5.6-2.6 1.4-3.4 2.3-.8.9-1.3 1.9-1.5 3-.2 1.1-.3 2-.3 2.8 0 2.5.8 4.3 2.5 5.4 1.6 1.1 3.7 1.7 6.3 1.7 1.7 0 3.2-.3 4.7-.9 1.5-.6 2.8-1.4 3.9-2.4s2-2.1 2.6-3.4c.6-1.3 1-2.5 1-3.8v-4.7z"/></g><g><circle class="st0" cx="386.6" cy="80" r="5.2"/><circle class="st0" cx="386.6" cy="99.2" r="5.8"/><circle class="st0" cx="386.6" cy="118.3" r="6.4"/><circle class="st0" cx="405.7" cy="60.9" r="4.7"/><circle class="st0" cx="405.7" cy="80" r="5.2"/><circle class="st0" cx="405.7" cy="99.2" r="5.8"/><circle class="st0" cx="405.7" cy="118.3" r="6.4"/><circle class="st0" cx="424.9" cy="22.6" r="3.8"/><circle class="st0" cx="424.9" cy="41.7" r="4.2"/><circle class="st0" cx="424.9" cy="60.9" r="4.7"/><circle class="st0" cx="424.9" cy="80" r="5.2"/><circle class="st0" cx="424.9" cy="99.2" r="5.8"/><circle class="st0" cx="444" cy="22.6" r="3.8"/><circle class="st0" cx="444" cy="41.7" r="4.2"/><circle class="st0" cx="444" cy="60.9" r="4.7"/><circle class="st0" cx="444" cy="80" r="5.2"/><circle class="st0" cx="463.2" cy="3.4" r="3.4"/><circle class="st0" cx="463.2" cy="22.6" r="3.8"/><circle class="st0" cx="463.2" cy="41.7" r="4.2"/><circle class="st0" cx="482.3" cy="3.4" r="3.4"/></g></svg>
